<svg enable-background="new 0 0 271.1 45.1" viewBox="0 0 271.1 45.1" xmlns="http://www.w3.org/2000/svg"><path d="m103.3 17.7-1.1 2-1.1 2.1c-.1.2-.4.4-.6.3h-1.7c-2.2 0-4.4 0-6.6 0-.4.1-.7-.2-.8-.6 0-.2 0-.4.1-.5 1.2-2.1 2.4-4.3 3.6-6.4s2.3-4.1 3.4-6.1 2.2-4 3.3-5.9c.4-.7.8-1.5 1.2-2.2 0 0 .1-.1.1-.1.2-.3.2-.3.4 0l.8 1.4c1 1.8 2 3.5 3 5.3l3 5.3c1 1.7 2 3.4 2.9 5.2.7 1.2 1.4 2.5 2.1 3.7.2.3.1.7-.2.9-.1.1-.3.1-.4.1-2.8 0-5.5 0-8.3 0-.4 0-.8-.2-.9-.5-.7-1.2-1.4-2.5-2.1-3.7z" fill="#2aa8f8"/><path d="m118.8 27.4c.2-.4.4-.7.6-1l1.7-3c.1-.3.4-.4.7-.4h8.3c.7 0 1 .5.6 1.1-1.1 1.9-2.1 3.8-3.2 5.7-1.3 2.2-2.5 4.4-3.8 6.7l-3.2 5.6-1.6 2.8c0 .1-.1.1-.2.2-.1-.1-.1-.1-.2-.2l-3.2-5.8c-1.1-2-2.3-4-3.4-6.1s-2.3-4.1-3.4-6.1c-.6-1-1.1-2-1.6-2.9-.2-.3-.2-.7.1-.9.1-.1.3-.2.5-.1h8.3c.3 0 .6.2.8.5.7 1.2 1.4 2.5 2.1 3.7z" fill="#132545"/><path d="m204.9 22.3v-9c0-.7.2-.9.9-.9h8c2.2 0 4.3.8 6 2.2 2 1.6 3.3 4 3.5 6.5.3 2.4-.2 4.8-1.6 6.8-1.5 2.4-4.1 3.9-6.9 4.2-.4.1-.8.1-1.2.1h-7.8c-.7 0-.9-.2-.9-.9zm4.6 0v5.2c0 .2 0 .3.3.3 1.5 0 3 0 4.5-.1 1.9-.1 3.6-1.4 4.2-3.3.3-1 .4-2 .3-3-.1-1.2-.6-2.3-1.4-3.1-1-1-2.4-1.6-3.8-1.5-1.2 0-2.4 0-3.6 0-.4 0-.4 0-.4.4z" fill="#132545"/><path d="m69.4 22.3v-8.8c0-.7.2-.8.8-.8h7.9c2.1 0 4.1.8 5.7 2.2 1.8 1.5 2.9 3.6 3.2 5.9.5 2.9-.3 5.9-2.2 8.1-1.5 1.8-3.6 2.9-5.9 3.1-.6 0-1.3 0-2 0h-6.4c-.1 0-.3 0-.4 0-.5-.1-.6-.3-.6-.8v-8.9zm4.5 0v5c0 .3 0 .4.4.4h3.4c.4 0 .8 0 1.2-.1 1.5-.3 2.9-1.3 3.5-2.7.6-1.5.7-3.2.1-4.7-.4-1.1-1.2-2.1-2.2-2.6-.8-.4-1.8-.6-2.7-.6-1.1 0-2.1 0-3.2 0-.4 0-.4 0-.4.4v4.9z" fill="#2aa8f8"/><path d="m265.8 24.9.9 1.1 4.2 5.2c.2.2.3.5.2.7s-.4.3-.6.3h-3.6c-.4 0-.7-.1-.9-.4-1.4-1.7-2.8-3.5-4.1-5.2-.2-.2-.4-.5-.6-.7-.1-.1-.3-.2-.4-.2-.4 0-.7 0-1.1 0s-.4.1-.4.4v5.2.3c0 .3-.2.6-.5.6 0 0 0 0-.1 0-1.1 0-2.3 0-3.4 0-.3 0-.6-.3-.6-.6 0-.1 0-.2 0-.3v-18c0-.7.2-.9.9-.9h6.9c2.5-.1 4.8 1.3 6 3.5 1.4 2.3 1.1 5.2-.6 7.3-.5.6-1.1 1.1-1.7 1.5-.3.1-.3.1-.5.2zm-4.7-3.1h1.2c.3 0 .7-.1 1-.2 1-.5 1.6-1.7 1.3-2.9-.2-1-1-1.8-2-1.9s-2.1 0-3.2 0c-.2 0-.2.1-.2.3v4.4c0 .2.1.3.3.3z" fill="#132545"/><path d="m153.7 22.3v-9c0-.6.2-.8.8-.8h7.1c1.6 0 3.2.6 4.4 1.7 1.3 1.1 2.1 2.6 2.3 4.3s-.3 3.4-1.4 4.7c-.5.7-1.1 1.2-1.9 1.6-.2.1-.2.2-.1.4 1.6 2 3.3 4.1 4.9 6.2.3.4.3.7-.1.8-.1.1-.2.1-.3.1h-3.8c-.3 0-.6-.2-.8-.4-1.6-2-3.1-3.9-4.7-5.9-.1-.1-.2-.2-.4-.2-.4 0-.7 0-1.1 0s-.4.1-.4.4v5.2.3c0 .4-.3.7-.6.7h-.1-3.2c-.5 0-.7-.2-.7-.7zm4.6-3.1v2.2c0 .3.1.4.4.4h2.9c.6 0 1.2-.3 1.6-.8s.6-1.2.6-1.9c0-1.3-1.1-2.3-2.4-2.3h-2.7c-.3 0-.4.1-.4.4z" fill="#132545"/><path d="m47.7 22.3v-8.8c0-.7.2-.8.8-.8h6.7c1.6 0 3.2.6 4.4 1.7 1.6 1.4 2.4 3.4 2.2 5.5-.1 1.4-.7 2.7-1.7 3.7-.5.4-.9.8-1.4 1.2-.2.1-.2.2 0 .4l2.5 3.1 2.2 2.8c.1.1.1.2.2.3.1.2.1.5-.1.6-.1 0-.1.1-.2.1-.2 0-.3.1-.5 0h-3c-.5 0-1-.2-1.3-.7-1.4-1.8-2.9-3.6-4.3-5.4-.1-.2-.4-.3-.6-.3-.3 0-.5 0-.8 0s-.4 0-.4.4v5.1c0 .6-.3.9-.9.9h-2.9c-.6 0-.8-.2-.8-.8v-9zm4.5-3v2.1c0 .2.1.3.3.3h2.6c.6 0 1.1-.2 1.5-.6.7-.7 1-1.7.7-2.6-.2-1-1.2-1.8-2.2-1.8-.8 0-1.7 0-2.5 0-.3 0-.4.1-.3.4 0 .8-.1 1.5-.1 2.2z" fill="#2aa8f8"/><path d="m186.6 12.5h2.2c.5-.1.9.3 1 .7l3.1 9.2c.8 2.4 1.5 4.7 2.3 7.1.2.7.4 1.3.6 2 .1.3 0 .6-.2.7-.1.1-.2.1-.3.1h-3.6c-.4 0-.7-.2-.8-.7-.2-.7-.4-1.4-.6-2.1 0-.2-.2-.3-.4-.3h-6.4c-.2 0-.4.1-.4.3-.2.7-.4 1.3-.6 2-.2.6-.4.8-1 .8h-3.3c-.1 0-.2 0-.3 0-.3 0-.5-.3-.5-.5 0 0 0 0 0-.1s0-.3.1-.4c1-3 2-6.1 3-9.1l2.5-7.4c.2-.5.3-1 .5-1.5.1-.5.5-.8 1-.7zm0 5.1c0 .1-.1.1-.1.1-.7 2.3-1.4 4.5-2.1 6.8-.1.3-.1.4.3.4h3.7.3z" fill="#132545"/><path d="m17.2 19.9c-.5 0-1 0-1.5 0-.4 0-.8-.2-.9-.6-.2-.3-.3-.6-.5-.9-.6-.8-1.4-1.3-2.4-1.5-1.8-.6-3.8-.2-5.3.9-1 .8-1.7 1.9-1.9 3.1-.3 1.2-.2 2.5.2 3.6.6 1.7 2 2.9 3.7 3.3 1.4.4 2.9.2 4.2-.5.8-.4 1.5-1.1 1.9-1.9.2-.4.6-.7 1.1-.6h3c.6 0 .8.3.6.8-.4 1.3-1 2.5-1.9 3.5-1.4 1.6-3.4 2.7-5.5 3.1s-4.3.1-6.3-.8c-2-.8-3.7-2.4-4.6-4.4-.6-1.2-.9-2.4-1-3.7-.2-2 .2-4.1 1.1-5.9.9-1.6 2.2-3 3.8-3.9 1.3-.7 2.8-1.2 4.4-1.3 2.5-.2 5 .5 7 2 1.6 1.2 2.7 2.8 3.2 4.7.2.5-.1.9-.7.9h-1.7z" fill="#2aa8f8"/><path d="m39.4 32h-1.5c-.5.1-.9-.2-1-.7 0 0 0 0 0-.1-.2-.7-.4-1.4-.6-2 0-.2-.2-.3-.4-.3h-6.2c-.2 0-.3.1-.4.3-.2.7-.4 1.4-.6 2-.2.5-.4.7-.9.7h-3.3c-.1 0-.2 0-.2 0-.3 0-.5-.2-.5-.5 0-.1 0-.1 0-.2.1-.4.2-.7.3-1.1.7-2.2 1.4-4.3 2.2-6.5l2.4-7.4c.3-1 .7-2 1-3 .1-.4.5-.7.9-.6h4.3c.4-.1.8.2.9.7 1 3.1 2 6.2 3.1 9.3.8 2.3 1.5 4.6 2.2 6.8.2.6.4 1.1.5 1.7s0 .8-.5.8c-.3.1-1.1.1-1.7.1zm-6.6-14.2c-.2.4-.3.7-.4 1-.5 1.9-1.1 3.7-1.7 5.6-.1.3-.1.4.3.4h3.5c.3 0 .3 0 .2-.3-.5-1.7-1-3.4-1.5-5.1-.1-.6-.3-1.1-.4-1.6z" fill="#2aa8f8"/><g fill="#132545"><path d="m233 22.3v-9c0-.7.2-.9.9-.9h10.1c.7 0 .9.2.9.9v2.6c0 .6-.2.9-.9.9h-6c-.4 0-.4 0-.4.4v2.4c0 .4 0 .4.4.4h5.2.4c.3 0 .5.3.5.6v3c0 .3-.3.6-.6.6h-5.5c-.4 0-.4 0-.4.4v2.7c0 .4 0 .4.4.4h6.2c.2 0 .4 0 .5.1.2.1.3.3.3.5v3.1c0 .3-.3.6-.6.6h-10.7c-.2 0-.3 0-.5-.1s-.4-.4-.3-.7v-8.9z"/><path d="m140 24.3v7 .4c0 .3-.3.6-.6.6h-3.3c-.3 0-.6-.2-.7-.6 0-.2 0-.4 0-.5 0-4.6 0-9.2 0-13.8 0-.5 0-.5-.5-.5h-3.2c-.6 0-.8-.2-.8-.8v-2.8c-.1-.4.2-.8.6-.8h.2 1.1 10.9.4c.3 0 .6.3.6.7v3c0 .3-.2.6-.6.7h-.1-3.4c-.4 0-.4 0-.4.4z"/></g></svg>