<svg fill="none" height="141" viewBox="0 0 785 141" width="785" xmlns="http://www.w3.org/2000/svg"><rect fill="#d9d9d9" height="43" rx="6" width="143"/><path d="m44.8398 26.48h-1.1308v-3.9434h-4.3008v3.9434h-1.125v-8.5313h1.125v3.668h4.3008v-3.668h1.1308zm5.7422-.627c-.4218.4961-1.041.7442-1.8574.7442-.6758 0-1.1914-.1953-1.5469-.586-.3515-.3945-.5293-.9765-.5332-1.746v-4.125h1.084v4.0957c0 .9609.3906 1.4414 1.1719 1.4414.8281 0 1.3789-.3086 1.6523-.9258v-4.6113h1.084v6.3398h-1.0312zm8.0742-2.4726c0 .9687-.2226 1.748-.6679 2.3379-.4453.5859-1.043.8789-1.793.8789-.8008 0-1.4199-.2832-1.8574-.8496l-.0527.7324h-.9961v-9h1.0839v3.3574c.4375-.543 1.0411-.8144 1.8106-.8144s1.373.291 1.8105.873c.4414.582.6621 1.3789.6621 2.3906zm-1.0839-.1231c0-.7382-.1426-1.3086-.4278-1.7109-.2851-.4023-.6953-.6035-1.2304-.6035-.7149 0-1.2286.332-1.5411.9961v2.7422c.3321.664.8497.9961 1.5528.9961.5195 0 .9238-.2012 1.2129-.6036.289-.4023.4336-1.0078.4336-1.8164zm6.7265-.1171v3.3398h-1.125v-8.5313h3.1465c.9336 0 1.6641.2383 2.1914.7149.5313.4766.7969 1.1074.7969 1.8926 0 .8281-.2598 1.4668-.7793 1.916-.5156.4453-1.2559.668-2.2207.668zm0-.92h2.0215c.6016 0 1.0625-.1406 1.3828-.4218.3203-.2852.4805-.6954.4805-1.2305 0-.5078-.1602-.9141-.4805-1.2188s-.7597-.4629-1.3183-.4746h-2.086zm8.8242 4.377c-.8593 0-1.5585-.2813-2.0976-.8438-.5391-.5664-.8086-1.3222-.8086-2.2675v-.1993c0-.6289.1191-1.1894.3574-1.6816.2422-.4961.5781-.8828 1.0078-1.1602.4336-.2812.9024-.4218 1.4063-.4218.8242 0 1.4648.2714 1.9219.8144.457.543.6855 1.3203.6855 2.332v.4512h-4.2949c.0156.625.1972 1.1309.5449 1.5176.3516.3828.7969.5742 1.3359.5742.3829 0 .7071-.0781.9727-.2344.2656-.1562.498-.3632.6973-.6211l.6621.5157c-.5313.8164-1.3282 1.2246-2.3907 1.2246zm-.1347-5.6836c-.4375 0-.8047.1601-1.1016.4805-.2969.3164-.4805.7617-.5508 1.3359h3.1758v-.082c-.0312-.5508-.1797-.9766-.4453-1.2774-.2656-.3047-.625-.457-1.0781-.457zm4.8926-.7734.0351.7968c.4844-.6093 1.1172-.914 1.8985-.914 1.3398 0 2.0156.7558 2.0273 2.2675v4.1895h-1.084v-4.1953c-.0039-.457-.1094-.7949-.3164-1.0137-.2031-.2187-.5215-.3281-.9551-.3281-.3515 0-.6601.0937-.9258.2812-.2656.1875-.4726.4336-.621.7383v4.5176h-1.084v-6.3398zm5.332 3.1171c0-.9726.2305-1.7539.6914-2.3437.4609-.5938 1.0645-.8906 1.8105-.8906.7422 0 1.3301.2539 1.7637.7617v-3.3047h1.084v9h-.9961l-.0527-.6797c-.4336.5313-1.0371.7969-1.8106.7969-.7343 0-1.334-.3008-1.7988-.9024-.4609-.6015-.6914-1.3867-.6914-2.3554zm1.084.1231c0 .7187.1484 1.2812.4453 1.6875.2969.4062.707.6094 1.2305.6094.6875 0 1.1894-.3086 1.5058-.9258v-2.9121c-.3242-.5977-.8223-.8965-1.4941-.8965-.5313 0-.9453.2051-1.2422.6152-.2969.4102-.4453 1.0176-.4453 1.8223zm7.1308 3.0996h-1.0839v-6.3398h1.0839zm-1.1718-8.0215c0-.1758.0527-.3242.1582-.4453.1093-.1211.2695-.1816.4804-.1816.211 0 .3711.0605.4805.1816s.1641.2695.1641.4453-.0547.3223-.1641.4395-.2695.1757-.4805.1757c-.2109 0-.3711-.0585-.4804-.1757-.1055-.1172-.1582-.2637-.1582-.4395zm3.9375 1.6817.0351.7968c.4844-.6093 1.1172-.914 1.8985-.914 1.3398 0 2.0156.7558 2.0273 2.2675v4.1895h-1.084v-4.1953c-.0039-.457-.1094-.7949-.3164-1.0137-.2031-.2187-.5215-.3281-.9551-.3281-.3515 0-.6601.0937-.9258.2812-.2656.1875-.4726.4336-.621.7383v4.5176h-1.084v-6.3398zm5.3378 3.1171c0-.9882.2286-1.7734.6858-2.3554.457-.586 1.062-.8789 1.816-.8789.774 0 1.377.2734 1.811.8203l.052-.7031h.991v6.1875c0 .8203-.244 1.4667-.733 1.9394-.484.4727-1.136.709-1.957.709-.457 0-.904-.0977-1.342-.293-.437-.1953-.771-.4629-1.0015-.8027l.5625-.6504c.465.5742 1.033.8613 1.705.8613.527 0 .938-.1484 1.231-.4453.296-.2969.445-.7148.445-1.2539v-.5449c-.434.5-1.026.75-1.776.75-.742 0-1.343-.2988-1.804-.8965-.4572-.5977-.6858-1.4121-.6858-2.4434zm1.0898.1231c0 .7148.147 1.2773.44 1.6875.293.4062.703.6094 1.23.6094.684 0 1.186-.3106 1.506-.9317v-2.8945c-.332-.6055-.83-.9082-1.494-.9082-.528 0-.94.2051-1.237.6152-.296.4102-.445 1.0176-.445 1.8223z" fill="#000"/><rect fill="#d9d9d9" height="43" rx="6" width="143" x="162"/><path d="m223.756 23.1402v3.3398h-1.125v-8.5313h3.146c.934 0 1.664.2383 2.192.7149.531.4766.797 1.1074.797 1.8926 0 .8281-.26 1.4668-.78 1.916-.515.4453-1.256.668-2.22.668zm0-.92h2.021c.602 0 1.063-.1406 1.383-.4218.32-.2852.481-.6954.481-1.2305 0-.5078-.161-.9141-.481-1.2188s-.76-.4629-1.318-.4746h-2.086zm10.119 4.2598c-.063-.125-.113-.3477-.152-.668-.504.5235-1.106.7852-1.805.7852-.625 0-1.139-.1758-1.541-.5274-.398-.3554-.598-.8046-.598-1.3476 0-.6602.25-1.1719.75-1.5352.504-.3672 1.211-.5508 2.121-.5508h1.055v-.498c0-.3789-.113-.6797-.34-.9023-.226-.2266-.56-.3399-1.002-.3399-.386 0-.711.0977-.972.293-.262.1953-.393.4316-.393.709h-1.09c0-.3164.112-.6211.334-.9141.227-.2969.531-.5312.914-.7031.387-.1719.811-.2578 1.272-.2578.73 0 1.302.1836 1.717.5507.414.3633.628.8653.644 1.5059v2.918c0 .582.074 1.0449.223 1.3886v.0938zm-1.799-.8262c.34 0 .662-.0879.967-.2636.305-.1758.525-.4043.662-.6856v-1.3008h-.85c-1.328 0-1.992.3887-1.992 1.166 0 .3399.114.6055.34.7969.227.1914.518.2871.873.2871zm5.59.8262h-1.084v-6.3398h1.084zm-1.172-8.0215c0-.1758.053-.3242.158-.4453.11-.1211.27-.1816.481-.1816s.371.0605.48.1816c.11.1211.164.2695.164.4453s-.054.3223-.164.4395c-.109.1172-.269.1757-.48.1757s-.371-.0585-.481-.1757c-.105-.1172-.158-.2637-.158-.4395zm2.649 4.7988c0-.9726.23-1.7539.691-2.3437.461-.5938 1.064-.8906 1.811-.8906.742 0 1.33.2539 1.763.7617v-3.3047h1.084v9h-.996l-.053-.6797c-.433.5313-1.037.7969-1.81.7969-.735 0-1.334-.3008-1.799-.9024-.461-.6015-.691-1.3867-.691-2.3554zm1.084.1231c0 .7187.148 1.2812.445 1.6875.297.4062.707.6094 1.23.6094.688 0 1.19-.3086 1.506-.9258v-2.9121c-.324-.5977-.822-.8965-1.494-.8965-.531 0-.945.2051-1.242.6152-.297.4102-.445 1.0176-.445 1.8223z" fill="#000"/><rect fill="#d9d9d9" height="43" rx="6" width="143" x="324"/><path d="m386.986 22.6773c-.965-.2774-1.668-.6172-2.109-1.0196-.438-.4062-.656-.9062-.656-1.5 0-.6718.267-1.2265.802-1.664.539-.4414 1.239-.6621 2.098-.6621.586 0 1.108.1132 1.565.3398.46.2266.816.5391 1.066.9375.254.3984.381.834.381 1.3066h-1.131c0-.5156-.164-.9199-.492-1.2128-.328-.2969-.791-.4454-1.389-.4454-.555 0-.988.1231-1.301.3692-.308.2422-.463.5801-.463 1.0137 0 .3476.147.6425.44.8847.297.2383.799.457 1.506.6563.711.1992 1.265.4199 1.664.6621.402.2383.699.5176.89.8379.196.3203.293.6972.293 1.1308 0 .6914-.269 1.2461-.808 1.6641-.539.4141-1.26.6211-2.162.6211-.586 0-1.133-.1113-1.641-.334-.508-.2266-.9-.5352-1.178-.9258-.273-.3906-.41-.834-.41-1.3301h1.131c0 .5157.189.9239.568 1.2246.383.2969.893.4454 1.53.4454.593 0 1.049-.1211 1.365-.3633s.475-.5723.475-.9903c0-.4179-.147-.7402-.44-.9668-.293-.2304-.824-.457-1.594-.6796zm7.073 3.9199c-.86 0-1.559-.2813-2.098-.8438-.539-.5664-.809-1.3222-.809-2.2675v-.1993c0-.6289.119-1.1894.358-1.6816.242-.4961.578-.8828 1.008-1.1602.433-.2812.902-.4218 1.406-.4218.824 0 1.465.2714 1.922.8144s.685 1.3203.685 2.332v.4512h-4.295c.016.625.198 1.1309.545 1.5176.352.3828.797.5742 1.336.5742.383 0 .707-.0781.973-.2344.265-.1562.498-.3632.697-.6211l.662.5157c-.531.8164-1.328 1.2246-2.39 1.2246zm-.135-5.6836c-.438 0-.805.1601-1.102.4805-.297.3164-.48.7617-.551 1.3359h3.176v-.082c-.031-.5508-.179-.9766-.445-1.2774-.266-.3047-.625-.457-1.078-.457zm4.892-.7734.036.7968c.484-.6093 1.117-.914 1.898-.914 1.34 0 2.016.7558 2.027 2.2675v4.1895h-1.084v-4.1953c-.004-.457-.109-.7949-.316-1.0137-.203-.2187-.522-.3281-.955-.3281-.352 0-.66.0937-.926.2812s-.473.4336-.621.7383v4.5176h-1.084v-6.3398zm7.067-1.5352v1.5352h1.183v.8378h-1.183v3.9317c0 .2539.053.4453.158.5742.105.125.285.1875.539.1875.125 0 .297-.0234.516-.0703v.8789c-.285.0781-.563.1172-.832.1172-.485 0-.85-.1465-1.096-.4395-.246-.2929-.369-.709-.369-1.248v-3.9317h-1.154v-.8378h1.154v-1.5352z" fill="#000"/><rect fill="#d9d9d9" height="43" rx="6" width="143" x="486"/><path d="m544.328 24.2534h-3.574l-.803 2.2266h-1.16l3.258-8.5313h.984l3.264 8.5313h-1.154zm-3.234-.9257h2.9l-1.453-3.9903zm9.246-2.2149c-.164-.0273-.342-.041-.533-.041-.711 0-1.194.3027-1.448.9082v4.5h-1.084v-6.3398h1.055l.018.7324c.355-.5664.859-.8496 1.511-.8496.211 0 .371.0273.481.082zm4.066 0c-.164-.0273-.342-.041-.533-.041-.711 0-1.193.3027-1.447.9082v4.5h-1.084v-6.3398h1.054l.018.7324c.356-.5664.859-.8496 1.512-.8496.211 0 .371.0273.48.082zm2.18 5.3672h-1.084v-6.3398h1.084zm-1.172-8.0215c0-.1758.053-.3242.158-.4453.11-.1211.27-.1816.481-.1816s.371.0605.48.1816c.11.1211.164.2695.164.4453s-.054.3223-.164.4395c-.109.1172-.269.1757-.48.1757s-.371-.0585-.481-.1757c-.105-.1172-.158-.2637-.158-.4395zm5.004 6.5508 1.57-4.8691h1.108l-2.274 6.3398h-.826l-2.297-6.3398h1.108zm6.27 1.5879c-.86 0-1.559-.2813-2.098-.8438-.539-.5664-.809-1.3222-.809-2.2675v-.1993c0-.6289.119-1.1894.358-1.6816.242-.4961.578-.8828 1.007-1.1602.434-.2812.903-.4218 1.407-.4218.824 0 1.465.2714 1.922.8144s.685 1.3203.685 2.332v.4512h-4.295c.016.625.197 1.1309.545 1.5176.352.3828.797.5742 1.336.5742.383 0 .707-.0781.973-.2344.265-.1562.498-.3632.697-.6211l.662.5157c-.531.8164-1.328 1.2246-2.39 1.2246zm-.135-5.6836c-.438 0-.805.1601-1.102.4805-.297.3164-.48.7617-.551 1.3359h3.176v-.082c-.031-.5508-.18-.9766-.445-1.2774-.266-.3047-.625-.457-1.078-.457zm3.603 2.3437c0-.9726.231-1.7539.692-2.3437.461-.5938 1.064-.8906 1.81-.8906.742 0 1.33.2539 1.764.7617v-3.3047h1.084v9h-.996l-.053-.6797c-.434.5313-1.037.7969-1.811.7969-.734 0-1.334-.3008-1.798-.9024-.461-.6015-.692-1.3867-.692-2.3554zm1.084.1231c0 .7187.149 1.2812.446 1.6875.296.4062.707.6094 1.23.6094.688 0 1.189-.3086 1.506-.9258v-2.9121c-.324-.5977-.822-.8965-1.494-.8965-.532 0-.946.2051-1.242.6152-.297.4102-.446 1.0176-.446 1.8223z" fill="#000"/><rect fill="#d9d9d9" height="43" rx="6" width="143" x="642"/><path d="m700.639 26.48v-8.5313h2.408c.742 0 1.398.1641 1.969.4922.57.3282 1.009.795 1.318 1.4004.312.6055.471 1.3008.475 2.086v.5449c0 .8047-.157 1.5097-.469 2.1152-.309.6055-.752 1.0703-1.33 1.3945-.574.3243-1.244.4903-2.01.4981zm1.125-7.6055v6.6856h1.183c.867 0 1.541-.2696 2.022-.8086.484-.5391.726-1.3067.726-2.3028v-.498c0-.9688-.228-1.7207-.685-2.2559-.453-.539-1.098-.8125-1.934-.8203zm6.293 4.377c0-.6211.121-1.1797.363-1.6758.246-.4961.586-.8789 1.019-1.1484.438-.2696.936-.4043 1.495-.4043.863 0 1.56.2988 2.091.8964.536.5977.803 1.3926.803 2.3848v.0762c0 .6172-.119 1.1719-.357 1.664-.235.4883-.573.8692-1.014 1.1426-.437.2735-.941.4102-1.512.4102-.859 0-1.556-.2988-2.091-.8965-.532-.5977-.797-1.3887-.797-2.373zm1.089.1289c0 .7031.163 1.2676.487 1.6933.328.4258.765.6387 1.312.6387.551 0 .989-.2148 1.313-.6445.324-.4336.486-1.0391.486-1.8164 0-.6953-.166-1.2578-.498-1.6875-.328-.4336-.766-.6504-1.312-.6504-.536 0-.967.2129-1.295.6387-.328.4257-.493 1.0351-.493 1.8281zm7.067-3.2402.035.7968c.484-.6093 1.117-.914 1.898-.914 1.34 0 2.016.7558 2.028 2.2675v4.1895h-1.084v-4.1953c-.004-.457-.11-.7949-.317-1.0137-.203-.2187-.521-.3281-.955-.3281-.351 0-.66.0937-.925.2812-.266.1875-.473.4336-.622.7383v4.5176h-1.083v-6.3398zm8.226 6.457c-.859 0-1.558-.2813-2.097-.8438-.539-.5664-.809-1.3222-.809-2.2675v-.1993c0-.6289.119-1.1894.358-1.6816.242-.4961.578-.8828 1.007-1.1602.434-.2812.903-.4218 1.407-.4218.824 0 1.465.2714 1.922.8144s.685 1.3203.685 2.332v.4512h-4.295c.016.625.197 1.1309.545 1.5176.352.3828.797.5742 1.336.5742.383 0 .707-.0781.973-.2344.265-.1562.498-.3632.697-.6211l.662.5157c-.531.8164-1.328 1.2246-2.391 1.2246zm-.134-5.6836c-.438 0-.805.1601-1.102.4805-.297.3164-.48.7617-.551 1.3359h3.176v-.082c-.031-.5508-.18-.9766-.445-1.2774-.266-.3047-.625-.457-1.078-.457z" fill="#000"/><path d="m0 104c0-3.314 2.68629-6 6-6h131c3.314 0 6 2.686 6 6v31c0 3.314-2.686 6-6 6h-131c-3.31371 0-6-2.686-6-6z" fill="#e9bcbc" fill-opacity=".1"/><rect fill="#d9d9d9" height="43" rx="6" width="143" y="98"/><path d="m60.3145 121.773c-.1055.902-.4395 1.6-1.002 2.092-.5586.488-1.3027.732-2.2324.732-1.0078 0-1.8164-.361-2.4258-1.084-.6055-.722-.9082-1.689-.9082-2.9v-.82c0-.793.1406-1.491.4219-2.092.2851-.602.6875-1.063 1.207-1.383.5195-.324 1.1211-.486 1.8047-.486.9062 0 1.6328.253 2.1797.761.5468.504.8652 1.203.9551 2.098h-1.1309c-.0977-.68-.3106-1.172-.6387-1.477-.3242-.304-.7793-.457-1.3652-.457-.7188 0-1.2832.266-1.6934.797-.4062.531-.6093 1.287-.6093 2.268v.826c0 .926.1933 1.662.58 2.209.3868.547.9278.82 1.6231.82.625 0 1.1035-.14 1.4355-.422.336-.285.5586-.779.668-1.482zm2.5488 2.707h-1.084v-9h1.084zm1.4531-3.229c0-.621.1211-1.179.3633-1.675.2461-.496.5859-.879 1.0195-1.149.4375-.269.9356-.404 1.4942-.404.8632 0 1.5605.299 2.0918.896.5351.598.8027 1.393.8027 2.385v.076c0 .618-.1191 1.172-.3574 1.664-.2344.489-.5723.87-1.0137 1.143-.4375.273-.9414.41-1.5117.41-.8594 0-1.5567-.299-2.0918-.896-.5313-.598-.7969-1.389-.7969-2.373zm1.0898.129c0 .704.1622 1.268.4864 1.694.3281.426.7656.638 1.3125.638.5508 0 .9883-.214 1.3125-.644.3242-.434.4863-1.039.4863-1.817 0-.695-.166-1.257-.498-1.687-.3282-.434-.7657-.65-1.3125-.65-.5352 0-.9668.212-1.295.638-.3281.426-.4922 1.035-.4922 1.828zm9.7325 1.418c0-.293-.1114-.519-.334-.679-.2188-.164-.6035-.305-1.1543-.422-.5469-.117-.9824-.258-1.3066-.422-.3204-.164-.5586-.359-.7149-.586-.1523-.227-.2285-.496-.2285-.809 0-.519.2187-.959.6562-1.318.4414-.359 1.0039-.539 1.6875-.539.7188 0 1.3008.186 1.7461.557.4493.371.6739.845.6739 1.423h-1.0899c0-.296-.1269-.552-.3808-.767-.25-.215-.5664-.322-.9493-.322-.3945 0-.7031.086-.9257.257-.2227.172-.334.397-.334.674 0 .262.1035.459.3105.592.2071.133.5801.26 1.1192.381.5429.121.9824.266 1.3183.433.336.168.584.372.7442.61.164.234.2461.521.2461.861 0 .567-.2266 1.022-.6797 1.365-.4532.34-1.041.51-1.7637.51-.5078 0-.957-.09-1.3477-.269-.3906-.18-.6972-.43-.9199-.75-.2187-.325-.3281-.674-.3281-1.049h1.084c.0195.363.164.652.4336.867.2734.211.6328.316 1.0781.316.4102 0 .7383-.082.9844-.246.25-.168.375-.39.375-.668zm5.1269 1.799c-.8594 0-1.5586-.281-2.0976-.844-.5391-.566-.8086-1.322-.8086-2.267v-.199c0-.629.1191-1.19.3574-1.682.2422-.496.5781-.883 1.0078-1.16.4336-.281.9024-.422 1.4063-.422.8242 0 1.4648.271 1.9218.814.4571.543.6856 1.321.6856 2.332v.452h-4.2949c.0156.625.1972 1.13.5449 1.517.3515.383.7969.574 1.3359.574.3828 0 .707-.078.9727-.234.2656-.156.498-.363.6972-.621l.6621.516c-.5312.816-1.3281 1.224-2.3906 1.224zm-.1347-5.683c-.4375 0-.8047.16-1.1016.48-.2969.316-.4805.762-.5508 1.336h3.1758v-.082c-.0313-.551-.1797-.977-.4453-1.277-.2656-.305-.625-.457-1.0781-.457zm3.6035 2.343c0-.972.2304-1.754.6914-2.343.4609-.594 1.0644-.891 1.8105-.891.7422 0 1.3301.254 1.7637.762v-3.305h1.084v9h-.9961l-.0527-.68c-.4336.532-1.0372.797-1.8106.797-.7344 0-1.334-.301-1.7988-.902-.461-.602-.6914-1.387-.6914-2.356zm1.084.123c0 .719.1484 1.282.4453 1.688.2968.406.707.609 1.2304.609.6875 0 1.1895-.308 1.5059-.926v-2.912c-.3242-.597-.8223-.896-1.4941-.896-.5313 0-.9454.205-1.2422.615-.2969.41-.4453 1.018-.4453 1.822z" fill="#000"/><path d="m250 104c0-3.314 2.686-6 6-6h131c3.314 0 6 2.686 6 6v31c0 3.314-2.686 6-6 6h-131c-3.314 0-6-2.686-6-6z" fill="#e9bcbc" fill-opacity=".1"/><rect fill="#d9d9d9" height="43" rx="6" width="143" x="250" y="98"/><path d="m275 121.029h-2.004v3.451h-1.131v-8.531h2.824c.961 0 1.7.219 2.215.656.52.438.78 1.074.78 1.91 0 .531-.145.994-.434 1.389-.285.394-.684.689-1.195.885l2.004 3.621v.07h-1.207zm-2.004-.92h1.729c.558 0 1.002-.145 1.33-.434.332-.289.498-.675.498-1.16 0-.527-.158-.931-.475-1.213-.312-.281-.766-.424-1.359-.427h-1.723zm8.731 4.488c-.86 0-1.559-.281-2.098-.844-.539-.566-.809-1.322-.809-2.267v-.199c0-.629.119-1.19.358-1.682.242-.496.578-.883 1.008-1.16.433-.281.902-.422 1.406-.422.824 0 1.465.271 1.922.814s.685 1.321.685 2.332v.452h-4.295c.016.625.198 1.13.545 1.517.352.383.797.574 1.336.574.383 0 .707-.078.973-.234.265-.156.498-.363.697-.621l.662.516c-.531.816-1.328 1.224-2.39 1.224zm-.135-5.683c-.438 0-.805.16-1.102.48-.297.316-.48.762-.551 1.336h3.176v-.082c-.031-.551-.179-.977-.445-1.277-.266-.305-.625-.457-1.078-.457zm3.603 2.343c0-.996.229-1.783.686-2.361.457-.582 1.07-.873 1.84-.873.75 0 1.341.252 1.775.756l.047-.639h.996v8.778h-1.084v-3.024c-.437.469-1.019.703-1.746.703-.766 0-1.377-.297-1.834-.89-.453-.598-.68-1.389-.68-2.373zm1.084.123c0 .727.153 1.297.457 1.711.309.414.723.621 1.243.621.644 0 1.136-.285 1.476-.855v-3.106c-.344-.558-.832-.837-1.465-.837-.523 0-.939.209-1.248.627-.308.414-.463 1.027-.463 1.839zm9.914 2.473c-.422.496-1.041.744-1.857.744-.676 0-1.191-.195-1.547-.586-.351-.394-.529-.976-.533-1.746v-4.125h1.084v4.096c0 .961.39 1.441 1.172 1.441.828 0 1.379-.308 1.652-.926v-4.611h1.084v6.34h-1.031zm5.338.744c-.859 0-1.558-.281-2.097-.844-.539-.566-.809-1.322-.809-2.267v-.199c0-.629.119-1.19.357-1.682.243-.496.579-.883 1.008-1.16.434-.281.903-.422 1.406-.422.825 0 1.465.271 1.922.814s.686 1.321.686 2.332v.452h-4.295c.016.625.197 1.13.545 1.517.351.383.797.574 1.336.574.383 0 .707-.078.972-.234.266-.156.499-.363.698-.621l.662.516c-.531.816-1.328 1.224-2.391 1.224zm-.135-5.683c-.437 0-.804.16-1.101.48-.297.316-.481.762-.551 1.336h3.176v-.082c-.031-.551-.18-.977-.445-1.277-.266-.305-.625-.457-1.079-.457zm7.559 3.884c0-.293-.111-.519-.334-.679-.219-.164-.603-.305-1.154-.422-.547-.117-.983-.258-1.307-.422-.32-.164-.558-.359-.715-.586-.152-.227-.228-.496-.228-.809 0-.519.219-.959.656-1.318.441-.359 1.004-.539 1.688-.539.718 0 1.3.186 1.746.557.449.371.673.845.673 1.423h-1.089c0-.296-.127-.552-.381-.767-.25-.215-.567-.322-.949-.322-.395 0-.704.086-.926.257-.223.172-.334.397-.334.674 0 .262.103.459.31.592s.58.26 1.119.381c.543.121.983.266 1.319.433.336.168.584.372.744.61.164.234.246.521.246.861 0 .567-.227 1.022-.68 1.365-.453.34-1.041.51-1.763.51-.508 0-.957-.09-1.348-.269-.391-.18-.697-.43-.92-.75-.219-.325-.328-.674-.328-1.049h1.084c.02.363.164.652.434.867.273.211.632.316 1.078.316.41 0 .738-.082.984-.246.25-.168.375-.39.375-.668zm3.967-6.193v1.535h1.183v.838h-1.183v3.932c0 .254.053.445.158.574.106.125.285.187.539.187.125 0 .297-.023.516-.07v.879c-.285.078-.563.117-.832.117-.485 0-.85-.146-1.096-.439s-.369-.709-.369-1.248v-3.932h-1.154v-.838h1.154v-1.535zm5.965 7.875v-5.502h-1.002v-.838h1.002v-.65c0-.68.181-1.205.545-1.576.363-.371.877-.557 1.541-.557.25 0 .498.033.744.1l-.059.878c-.183-.035-.379-.052-.586-.052-.351 0-.623.103-.814.31-.192.203-.287.496-.287.879v.668h1.353v.838h-1.353v5.502zm3.351-3.229c0-.621.121-1.179.364-1.675.246-.496.586-.879 1.019-1.149.438-.269.936-.404 1.494-.404.864 0 1.561.299 2.092.896.535.598.803 1.393.803 2.385v.076c0 .618-.119 1.172-.358 1.664-.234.489-.572.87-1.013 1.143-.438.273-.942.41-1.512.41-.859 0-1.557-.299-2.092-.896-.531-.598-.797-1.389-.797-2.373zm1.09.129c0 .704.162 1.268.486 1.694.329.426.766.638 1.313.638.551 0 .988-.214 1.312-.644.325-.434.487-1.039.487-1.817 0-.695-.166-1.257-.498-1.687-.328-.434-.766-.65-1.313-.65-.535 0-.967.212-1.295.638s-.492 1.035-.492 1.828zm9.106-2.267c-.164-.028-.342-.041-.534-.041-.711 0-1.193.303-1.447.908v4.5h-1.084v-6.34h1.055l.017.733c.356-.567.86-.85 1.512-.85.211 0 .371.027.481.082zm10.423 2.66c-.105.902-.439 1.6-1.002 2.092-.558.488-1.302.732-2.232.732-1.008 0-1.816-.361-2.426-1.084-.605-.722-.908-1.689-.908-2.9v-.82c0-.793.141-1.491.422-2.092.285-.602.687-1.063 1.207-1.383.52-.324 1.121-.486 1.805-.486.906 0 1.632.253 2.179.761.547.504.866 1.203.955 2.098h-1.13c-.098-.68-.311-1.172-.639-1.477-.324-.304-.779-.457-1.365-.457-.719 0-1.284.266-1.694.797-.406.531-.609 1.287-.609 2.268v.826c0 .926.193 1.662.58 2.209s.928.82 1.623.82c.625 0 1.104-.14 1.436-.422.336-.285.558-.779.668-1.482zm5.286 2.707c-.063-.125-.114-.348-.153-.668-.504.523-1.105.785-1.804.785-.625 0-1.139-.176-1.541-.527-.399-.356-.598-.805-.598-1.348 0-.66.25-1.172.75-1.535.504-.367 1.211-.551 2.121-.551h1.055v-.498c0-.379-.114-.679-.34-.902-.227-.227-.561-.34-1.002-.34-.387 0-.711.098-.973.293s-.392.432-.392.709h-1.09c0-.316.111-.621.334-.914.226-.297.531-.531.914-.703.387-.172.81-.258 1.271-.258.731 0 1.303.184 1.717.551.414.363.629.865.645 1.506v2.918c0 .582.074 1.045.222 1.388v.094zm-1.799-.826c.34 0 .662-.088.967-.264.304-.176.525-.404.662-.685v-1.301h-.85c-1.328 0-1.992.389-1.992 1.166 0 .34.113.605.34.797.226.191.517.287.873.287zm5.437-5.514.035.797c.485-.609 1.118-.914 1.899-.914 1.34 0 2.015.756 2.027 2.268v4.189h-1.084v-4.195c-.004-.457-.109-.795-.316-1.014-.203-.219-.522-.328-.955-.328-.352 0-.66.094-.926.281-.266.188-.473.434-.621.738v4.518h-1.084v-6.34zm8.139 5.572c.387 0 .725-.117 1.014-.351.289-.235.449-.527.48-.879h1.025c-.019.363-.144.709-.375 1.037-.23.328-.539.59-.925.785-.383.196-.789.293-1.219.293-.863 0-1.551-.287-2.063-.861-.507-.578-.761-1.367-.761-2.367v-.182c0-.617.113-1.166.34-1.646.226-.481.55-.854.972-1.12.426-.265.928-.398 1.506-.398.711 0 1.301.213 1.77.639.472.425.724.978.755 1.658h-1.025c-.031-.41-.187-.746-.469-1.008-.277-.266-.621-.398-1.031-.398-.551 0-.978.199-1.283.597-.301.395-.451.967-.451 1.717v.205c0 .731.15 1.293.451 1.688.301.394.73.591 1.289.591zm6.369.885c-.859 0-1.559-.281-2.098-.844-.539-.566-.808-1.322-.808-2.267v-.199c0-.629.119-1.19.357-1.682.242-.496.578-.883 1.008-1.16.434-.281.902-.422 1.406-.422.825 0 1.465.271 1.922.814s.686 1.321.686 2.332v.452h-4.295c.015.625.197 1.13.545 1.517.351.383.797.574 1.336.574.382 0 .707-.078.972-.234.266-.156.498-.363.698-.621l.662.516c-.532.816-1.328 1.224-2.391 1.224zm-.135-5.683c-.437 0-.804.16-1.101.48-.297.316-.481.762-.551 1.336h3.176v-.082c-.032-.551-.18-.977-.446-1.277-.265-.305-.625-.457-1.078-.457zm5.045 5.566h-1.084v-9h1.084z" fill="#000"/><path d="m414 104c0-3.314 2.686-6 6-6h131c3.314 0 6 2.686 6 6v31c0 3.314-2.686 6-6 6h-131c-3.314 0-6-2.686-6-6z" fill="#e9bcbc" fill-opacity=".1"/><rect fill="#d9d9d9" height="43" rx="6" width="143" x="414" y="98"/><g fill="#000"><path d="m475.914 123.56h4.043v.92h-5.174v-8.531h1.131zm4.869-2.309c0-.621.121-1.179.363-1.675.247-.496.586-.879 1.02-1.149.438-.269.936-.404 1.494-.404.863 0 1.561.299 2.092.896.535.598.803 1.393.803 2.385v.076c0 .618-.119 1.172-.358 1.664-.234.489-.572.87-1.013 1.143-.438.273-.942.41-1.512.41-.86 0-1.557-.299-2.092-.896-.531-.598-.797-1.389-.797-2.373zm1.09.129c0 .704.162 1.268.486 1.694.329.426.766.638 1.313.638.551 0 .988-.214 1.312-.644.325-.434.487-1.039.487-1.817 0-.695-.166-1.257-.498-1.687-.328-.434-.766-.65-1.313-.65-.535 0-.967.212-1.295.638s-.492 1.035-.492 1.828zm9.732 1.418c0-.293-.111-.519-.334-.679-.218-.164-.603-.305-1.154-.422-.547-.117-.982-.258-1.306-.422-.321-.164-.559-.359-.715-.586-.153-.227-.229-.496-.229-.809 0-.519.219-.959.656-1.318.442-.359 1.004-.539 1.688-.539.719 0 1.301.186 1.746.557.449.371.674.845.674 1.423h-1.09c0-.296-.127-.552-.381-.767-.25-.215-.566-.322-.949-.322-.395 0-.703.086-.926.257-.223.172-.334.397-.334.674 0 .262.104.459.311.592s.58.26 1.119.381c.543.121.982.266 1.318.433.336.168.584.372.744.61.164.234.246.521.246.861 0 .567-.226 1.022-.679 1.365-.453.34-1.041.51-1.764.51-.508 0-.957-.09-1.348-.269-.39-.18-.697-.43-.919-.75-.219-.325-.329-.674-.329-1.049h1.084c.02.363.164.652.434.867.273.211.633.316 1.078.316.41 0 .738-.082.984-.246.25-.168.375-.39.375-.668zm3.967-6.193v1.535h1.184v.838h-1.184v3.932c0 .254.053.445.158.574.106.125.286.187.54.187.125 0 .296-.023.515-.07v.879c-.285.078-.562.117-.832.117-.484 0-.849-.146-1.096-.439-.246-.293-.369-.709-.369-1.248v-3.932h-1.154v-.838h1.154v-1.535z"/><path d="m71.6464 87.3536c.1953.1952.5119.1952.7072 0l3.1819-3.182c.1953-.1953.1953-.5119 0-.7071-.1952-.1953-.5118-.1953-.7071 0l-2.8284 2.8284-2.8284-2.8284c-.1953-.1953-.5119-.1953-.7071 0-.1953.1952-.1953.5118 0 .7071zm-.1464-33.3536v33h1v-33z"/><path d="m276.646 87.3536c.196.1952.512.1952.708 0l3.182-3.182c.195-.1953.195-.5119 0-.7071-.196-.1953-.512-.1953-.708 0l-2.828 2.8284-2.828-2.8284c-.196-.1953-.512-.1953-.708 0-.195.1952-.195.5118 0 .7071zm-.146-33.3536v33h1v-33z"/><path d="m439.646 87.3536c.196.1952.512.1952.708 0l3.182-3.182c.195-.1953.195-.5119 0-.7071-.196-.1953-.512-.1953-.708 0l-2.828 2.8284-2.828-2.8284c-.196-.1953-.512-.1953-.708 0-.195.1952-.195.5118 0 .7071zm-.146-33.3536v33h1v-33z"/><path d="m532.354 53.6464c-.196-.1952-.512-.1952-.708 0l-3.182 3.182c-.195.1953-.195.5119 0 .7071.196.1953.512.1953.708 0l2.828-2.8284 2.828 2.8284c.196.1953.512.1953.708 0 .195-.1952.195-.5118 0-.7071zm.146 33.3536v-33h-1v33z"/></g></svg>